<svg version="1.1" xmlns="http://www.w3.org/2000/svg" viewBox="0 0 497 535">
<path d="M246.27828979492188,301.1449279785156 c83.26599884033203,0 150.80299377441406,-67.53800201416016 150.80299377441406,-150.80299377441406 S329.54327392578125,0.0009374618530273438 246.27828979492188,0.0009374618530273438 S95.47528076171875,67.5389404296875 95.47528076171875,150.34193420410156 S163.0122833251953,301.1449279785156 246.27828979492188,301.1449279785156 zM246.27828979492188,39.32093811035156 c61.06100082397461,0 111.02100372314453,49.95899963378906 111.02100372314453,111.02100372314453 S307.33929443359375,261.3619384765625 246.27828979492188,261.3619384765625 s-111.02100372314453,-49.95899963378906 -111.02100372314453,-111.02100372314453 S185.21627807617188,39.32093811035156 246.27828979492188,39.32093811035156 z"/>
<path d="M17.542739868164062,535.0051879882812 h461.8783874511719 c9.792407035827637,0 17.544654846191406,-8.738407135009766 17.544654846191406,-19.77650260925293 c0,-103.48287200927734 -74.66732025146484,-188.10891723632812 -166.88018798828125,-188.10891723632812 H166.87826538085938 C75.07378387451172,327.1197814941406 -0.00191497802734375,411.2855224609375 -0.00191497802734375,515.228759765625 C-0.00191497802734375,526.2667846679688 7.750335693359375,535.0051879882812 17.542739868164062,535.0051879882812 zM166.87826538085938,366.67279052734375 h163.2073516845703 c66.91506958007812,0 121.9975814819336,56.11113739013672 130.56658935546875,128.77841186523438 H36.31166076660156 C44.879798889160156,423.2442626953125 99.96319580078125,366.67279052734375 166.87826538085938,366.67279052734375 z"/>
</svg>